<?xml version="1.0" encoding="utf-8"?>
<!-- Generator: Adobe Illustrator 15.0.2, SVG Export Plug-In . SVG Version: 6.00 Build 0)  -->
<!DOCTYPE svg PUBLIC "-//W3C//DTD SVG 1.1//EN" "http://www.w3.org/Graphics/SVG/1.1/DTD/svg11.dtd">
<svg version="1.1" id="Layer_1" xmlns="http://www.w3.org/2000/svg" xmlns:xlink="http://www.w3.org/1999/xlink" x="0px" y="0px"
	 width="488.383px" height="424.594px" viewBox="62.76 335.038 488.383 424.594"
	 enable-background="new 62.76 335.038 488.383 424.594" xml:space="preserve">
<path fill="grey" d="M504.767,667.96c12.468,0,23.163,4.428,32.019,13.292c8.865,8.96,13.357,19.591,13.357,32.028
	c0,12.501-4.492,23.131-13.357,32.027c-8.855,8.888-19.559,13.324-32.019,13.324c-12.47,0-23.101-4.428-32.028-13.324
	c-8.864-8.888-13.293-19.526-13.293-32.027c0-12.438,4.429-23.068,13.293-32.028C481.666,672.396,492.297,667.96,504.767,667.96
	L504.767,667.96z"/>
<g>
	<path d="M159.098,392.307v12.296c17.941-23.596,37.555-40.922,58.863-51.979c21.298-11.057,45.773-16.585,73.437-16.585
		c26.901,0,50.941,5.846,72.123,17.517c21.182,11.671,37.005,28.193,47.468,49.554c6.726,12.466,11.088,25.926,13.08,40.383
		c1.99,14.467,2.997,32.905,2.997,55.337v189.955c0,20.44-4.681,35.903-14.022,46.367c-9.341,10.463-21.488,15.706-36.442,15.706
		c-15.209,0-27.536-5.37-37.004-16.077c-9.469-10.718-14.203-26.053-14.203-46.006V518.623c0-33.658-4.682-59.394-14.022-77.218
		s-27.97-26.741-55.866-26.741c-18.195,0-34.759,5.423-49.713,16.268s-25.916,25.746-32.884,44.692
		c-4.988,15.209-7.477,43.635-7.477,85.256v127.895c0,20.693-4.787,36.22-14.34,46.567c-9.563,10.337-21.913,15.516-37.057,15.516
		c-14.647,0-26.689-5.359-36.125-16.066c-9.437-10.719-14.149-26.043-14.149-45.975V393.959c0-19.423,4.215-33.933,12.656-43.528
		c8.44-9.595,19.984-14.393,34.642-14.393c8.938,0,16.998,2.118,24.2,6.333c7.202,4.226,12.974,10.56,17.316,19.011
		C156.916,369.833,159.098,380.138,159.098,392.307z"/>
</g>
</svg>
